<svg width="122" height="40" viewBox="0 0 122 40" fill="none" xmlns="http://www.w3.org/2000/svg">
<path d="M35.8168 1.38672C36.4311 1.38672 36.8917 1.57847 37.1988 1.92361C37.506 2.26876 37.6211 2.69061 37.6211 3.2275C37.6211 3.7644 37.4676 4.18624 37.1605 4.56974C36.8533 4.95324 36.3927 5.14499 35.7784 5.14499C35.2026 5.14499 34.7419 4.95324 34.4732 4.56974C34.2045 4.18624 34.0509 3.72605 34.0509 3.2275C34.0509 2.69061 34.2045 2.26876 34.4732 1.92361C34.7803 1.57847 35.241 1.38672 35.8168 1.38672ZM37.3908 8.05956V28.9985H34.3581V8.05956H37.3908Z" fill="white"/>
<path d="M51.0956 1.08008V28.9986H49.0226L48.5236 27.6947C47.9861 28.1933 47.4103 28.5768 46.7577 28.8452C46.1051 29.1137 45.4141 29.2671 44.7231 29.2671C44.1472 29.2671 43.6098 29.152 43.0723 28.9603C42.5349 28.7685 42.0742 28.4234 41.6903 28.0015C41.3064 27.5797 40.9993 27.0428 40.7306 26.4292C40.5003 25.8156 40.3851 25.0486 40.3851 24.2049V12.8534C40.3851 12.0097 40.5003 11.2811 40.7306 10.6291C40.9609 9.9772 41.2681 9.4403 41.6903 9.01846C42.0742 8.59661 42.5349 8.28981 43.0723 8.05972C43.6098 7.86797 44.1472 7.75292 44.7231 7.75292C45.2989 7.75292 45.9131 7.86797 46.489 8.05972C47.0648 8.25146 47.6022 8.55826 48.1013 8.94176V1.84707L51.0956 1.08008ZM43.4178 23.553C43.4178 24.435 43.5714 25.087 43.9169 25.5472C44.2624 26.0074 44.7998 26.2375 45.5292 26.2375C46.4506 26.2375 47.2951 25.854 48.0245 25.0486V12.0097C47.2567 11.2044 46.4506 10.8209 45.5292 10.8209C44.7614 10.8209 44.224 11.051 43.9169 11.5112C43.5714 11.9714 43.4178 12.6617 43.4178 13.5054V23.553Z" fill="white"/>
<path d="M60.9616 19.6027C60.5009 20.0246 59.9251 20.4464 59.2725 20.9066C58.6198 21.3668 57.8905 21.8653 57.0459 22.4022V24.0896C57.0459 24.8183 57.2378 25.3552 57.6601 25.7387C58.0824 26.1222 58.5815 26.3139 59.2341 26.3139C59.8867 26.3139 60.4241 26.1222 60.8464 25.7387C61.2687 25.3552 61.4606 24.8183 61.4606 24.0896V22.7474L64.2246 22.0187V24.1663C64.2246 24.9717 64.1095 25.662 63.8407 26.2756C63.572 26.8891 63.2265 27.426 62.7275 27.8862C62.2668 28.3464 61.7293 28.6532 61.1151 28.8833C60.5009 29.1134 59.8483 29.2285 59.1189 29.2285C58.3895 29.2285 57.7369 29.1134 57.1611 28.8833C56.5468 28.6532 56.0094 28.3081 55.5487 27.8862C55.0881 27.426 54.7426 26.9275 54.4738 26.2756C54.2051 25.662 54.09 24.9333 54.09 24.1663V12.8532C54.09 12.0862 54.2051 11.3575 54.4738 10.7439C54.7426 10.1303 55.0881 9.59345 55.5487 9.13325C56.0094 8.67306 56.5468 8.36626 57.1611 8.13616C57.7753 7.90606 58.4279 7.79102 59.1573 7.79102C59.7715 7.79102 60.3857 7.86771 61 8.05946C61.6142 8.25121 62.1516 8.55801 62.6507 8.97985C63.1113 9.4017 63.5336 9.97695 63.8407 10.6672C64.1478 11.3575 64.3014 12.2396 64.3014 13.275C64.3014 14.5789 64.0327 15.7294 63.4952 16.6881C62.9578 17.6852 62.1132 18.644 60.9616 19.6027ZM57.0459 19.4493C58.0824 18.7974 58.8502 18.1838 59.426 17.6852C60.117 17.0333 60.6545 16.3813 60.9232 15.7294C61.2303 15.0775 61.3838 14.3488 61.3838 13.5051C61.3838 12.393 61.1535 11.6643 60.7312 11.2425C60.2706 10.8206 59.7715 10.5905 59.1573 10.5905C58.5047 10.5905 57.9672 10.8206 57.6217 11.2425C57.2378 11.6643 57.0843 12.2396 57.0843 13.0066V19.4493H57.0459Z" fill="white"/>
<path d="M68.601 1.38672C69.2152 1.38672 69.6759 1.57847 69.983 1.92361C70.2901 2.26876 70.4437 2.72896 70.4437 3.2275C70.4437 3.7644 70.2901 4.18624 69.983 4.56974C69.6759 4.95324 69.2152 5.14499 68.601 5.14499C68.0251 5.14499 67.5645 4.95324 67.2957 4.56974C67.027 4.18624 66.8735 3.72605 66.8735 3.2275C66.8735 2.69061 67.027 2.26876 67.2957 1.92361C67.5645 1.57847 67.9867 1.38672 68.601 1.38672ZM70.1749 8.05956V28.9985H67.1422V8.05956H70.1749Z" fill="white"/>
<path d="M73.5531 10.1303C74.0522 9.4017 74.7432 8.82646 75.6261 8.40461C76.5091 7.98276 77.4304 7.79102 78.4285 7.79102C80.0793 7.79102 81.3461 8.32791 82.1523 9.4017C82.9584 10.4755 83.3807 11.8177 83.3807 13.5051V28.9984H81.4613L80.9238 27.8479C80.3864 28.2697 79.8105 28.6149 79.1579 28.8833C78.5053 29.1518 77.8143 29.2668 77.0849 29.2668C76.5091 29.2668 75.9716 29.1518 75.4342 28.96C74.8967 28.7683 74.4361 28.4615 74.0138 28.0396C73.5915 27.6178 73.2844 27.0809 73.0541 26.3906C72.8237 25.7003 72.7086 24.8566 72.7086 23.8595C72.7086 23.0925 72.7854 22.3639 72.9389 21.7503C73.0925 21.0983 73.3612 20.5231 73.7067 19.9479C74.0522 19.3726 74.5129 18.8357 75.0503 18.2605C75.5877 17.7236 76.2404 17.1483 77.0081 16.5731C77.5072 16.1896 78.0446 15.8061 78.6589 15.4226C79.2347 15.0391 79.8873 14.6173 80.5399 14.1954V13.5435C80.5399 12.6614 80.348 11.9711 79.9257 11.4342C79.5034 10.8973 78.8892 10.6289 78.0446 10.6289C77.4688 10.6289 76.9314 10.7823 76.4323 11.0507C75.9716 11.3192 75.5494 11.741 75.2806 12.2396L73.5531 10.1303ZM77.9679 26.3906C78.4285 26.3906 78.8892 26.2755 79.3115 26.0838C79.7338 25.8921 80.1176 25.5853 80.5015 25.2018V17.1483C80.0793 17.4168 79.7338 17.6469 79.3883 17.8386C79.0811 18.0687 78.774 18.2605 78.4669 18.4906C77.392 19.3343 76.6626 20.1396 76.2787 20.9066C75.8949 21.6736 75.7029 22.5173 75.7029 23.361C75.7029 24.4348 75.8949 25.2018 76.3171 25.662C76.7394 26.1222 77.3153 26.3906 77.9679 26.3906Z" fill="white"/>
<path d="M89.9452 7.29297C91.212 7.29297 92.2485 7.67647 93.0163 8.40511C93.7841 9.13375 94.168 10.3609 94.168 12.01C94.168 12.777 94.0912 13.4289 93.8993 13.9658C93.7457 14.5027 93.477 15.0396 93.1699 15.6148C92.9395 15.9983 92.6708 16.4585 92.3253 16.9187C91.9798 17.4173 91.6727 17.8775 91.2888 18.4144C90.9433 18.9129 90.5978 19.4115 90.2523 19.91C89.9068 20.4086 89.5997 20.8687 89.331 21.2906C89.139 21.6357 88.9855 21.9042 88.8319 22.1726C88.7168 22.4411 88.6016 22.7095 88.5248 22.9396C88.448 23.2081 88.4097 23.4765 88.3713 23.745C88.3329 24.0518 88.3329 24.3969 88.3329 24.7804V26.5445H94.1296V28.9989H85.8376V24.7804C85.8376 24.0901 85.9144 23.3998 86.0679 22.7095C86.2215 22.0192 86.4902 21.3289 86.9125 20.5619C87.1428 20.1785 87.4499 19.7183 87.7954 19.2197C88.1409 18.7212 88.4864 18.2226 88.8703 17.7241C89.2158 17.2255 89.5997 16.727 89.9452 16.2284C90.2907 15.7299 90.5978 15.2697 90.8282 14.8862C91.1353 14.3493 91.3656 13.8508 91.4808 13.3522C91.5959 12.892 91.6727 12.3935 91.6727 11.8949C91.6727 11.0896 91.5192 10.5143 91.212 10.1692C90.9049 9.82405 90.4443 9.67065 89.8684 9.67065C89.2542 9.67065 88.7935 9.82405 88.4864 10.1308C88.1409 10.4376 87.9874 10.8978 87.9874 11.5114V12.1634H85.684V11.4731C85.684 10.1692 86.0679 9.13375 86.7973 8.36676C87.5267 7.67647 88.6016 7.29297 89.9452 7.29297Z" fill="#FA9401"/>
<path d="M104.687 25.0865C104.687 25.7768 104.571 26.352 104.341 26.8889C104.111 27.4258 103.804 27.8477 103.42 28.2312C103.036 28.6147 102.537 28.8831 101.999 29.0749C101.462 29.2666 100.886 29.3433 100.31 29.3433C99.696 29.3433 99.1202 29.2666 98.5827 29.0749C98.0453 28.8831 97.5846 28.6147 97.2007 28.2312C96.8168 27.8477 96.5097 27.4258 96.2794 26.8889C96.049 26.352 95.9339 25.7768 95.9339 25.0865V11.5491C95.9339 10.8588 96.049 10.2835 96.2794 9.74663C96.5097 9.20974 96.8168 8.78789 97.2007 8.4044C97.5846 8.05925 98.0453 7.75245 98.5827 7.5607C99.1202 7.36896 99.696 7.25391 100.31 7.25391C100.924 7.25391 101.462 7.36896 101.999 7.5607C102.537 7.75245 102.997 8.05925 103.42 8.4044C103.804 8.74954 104.149 9.20974 104.341 9.74663C104.571 10.2835 104.687 10.8588 104.687 11.5491V25.0865ZM98.3908 25.0481C98.3908 25.6617 98.5827 26.1219 98.9282 26.4671C99.2737 26.7739 99.7344 26.9273 100.31 26.9273C100.886 26.9273 101.347 26.7739 101.692 26.4671C102.038 26.1603 102.23 25.7001 102.23 25.0481V11.5874C102.23 10.9738 102.038 10.5136 101.692 10.1685C101.347 9.86168 100.886 9.70828 100.31 9.70828C99.7344 9.70828 99.2737 9.86168 98.9282 10.1685C98.5827 10.4753 98.3908 10.9355 98.3908 11.5874V25.0481Z" fill="#FA9401"/>
<path d="M115.704 25.0865C115.704 25.7768 115.589 26.352 115.359 26.8889C115.128 27.4258 114.821 27.8477 114.437 28.2312C114.053 28.6147 113.554 28.8831 113.017 29.0749C112.48 29.2666 111.904 29.3433 111.328 29.3433C110.714 29.3433 110.138 29.2666 109.6 29.0749C109.063 28.8831 108.602 28.6147 108.218 28.2312C107.834 27.8477 107.527 27.4258 107.297 26.8889C107.067 26.352 106.951 25.7768 106.951 25.0865V11.5491C106.951 10.8588 107.067 10.2835 107.297 9.74663C107.527 9.20974 107.834 8.78789 108.218 8.4044C108.602 8.05925 109.063 7.75245 109.6 7.5607C110.138 7.36896 110.714 7.25391 111.328 7.25391C111.942 7.25391 112.48 7.36896 113.017 7.5607C113.554 7.75245 114.015 8.05925 114.437 8.4044C114.821 8.74954 115.167 9.20974 115.359 9.74663C115.589 10.2835 115.704 10.8588 115.704 11.5491V25.0865ZM109.408 25.0481C109.408 25.6617 109.6 26.1219 109.946 26.4671C110.291 26.7739 110.752 26.9273 111.328 26.9273C111.904 26.9273 112.364 26.7739 112.71 26.4671C113.055 26.1603 113.247 25.7001 113.247 25.0481V11.5874C113.247 10.9738 113.055 10.5136 112.71 10.1685C112.364 9.86168 111.904 9.70828 111.328 9.70828C110.752 9.70828 110.291 9.86168 109.946 10.1685C109.6 10.4753 109.408 10.9355 109.408 11.5874V25.0481Z" fill="#FA9401"/>
<path d="M118.276 9.43987C118.737 9.43987 119.044 9.28647 119.236 8.97967C119.428 8.67287 119.505 8.21268 119.505 7.67578H122V28.9982H119.505V11.5491H117.201V9.43987H118.276Z" fill="#FA9401"/>
<path d="M37.9666 36.8982C37.7363 37.0133 37.2373 37.1667 36.5463 37.1667C35.1259 37.1667 34.2045 36.2079 34.2045 34.904C34.2045 33.5235 35.2026 32.5264 36.6998 32.5264C37.2373 32.5264 37.6979 32.6798 37.9283 32.7948L37.7363 33.4084C37.5828 33.3317 37.2373 33.2167 36.7382 33.2167C35.6633 33.2167 35.0491 33.9453 35.0491 34.8657C35.0491 35.9011 35.7785 36.5147 36.6998 36.5147C37.1989 36.5147 37.5444 36.3613 37.8131 36.2846L37.9666 36.8982Z" fill="white"/>
<path d="M42.2278 36.0166C42.2278 36.4001 42.2278 36.7836 42.3046 37.0904H41.5752L41.4984 36.5152H41.46C41.2297 36.8603 40.6923 37.2055 40.0013 37.2055C39.0415 37.2055 38.5809 36.5152 38.5809 35.9399C38.5809 34.8661 39.5022 34.2526 41.4217 34.2909V34.2142C41.4217 33.9458 41.3449 33.1788 40.3468 33.1788C39.8861 33.1788 39.4254 33.3322 39.0799 33.5623L38.888 33.0254C39.3103 32.7569 39.8477 32.6035 40.4619 32.6035C41.9207 32.6035 42.2278 33.639 42.2278 34.4826V36.0166ZM41.46 34.8278C40.4619 34.7894 39.4254 34.9812 39.4254 35.7865C39.4254 36.2851 39.7709 36.5535 40.2316 36.5535C40.8842 36.5535 41.2681 36.1317 41.4217 35.7865C41.46 35.7098 41.46 35.5948 41.46 35.5181V34.8278Z" fill="white"/>
<path d="M44.5695 31.6064V32.6802H45.798V33.2938H44.5695V35.5948C44.5695 36.1317 44.7231 36.5152 45.2222 36.5152C45.4525 36.5152 45.606 36.4769 45.7212 36.4385L45.7596 37.0521C45.606 37.1288 45.3373 37.1672 44.9918 37.1672C44.6079 37.1672 44.3008 37.0138 44.1089 36.7837C43.8785 36.5152 43.8018 36.0934 43.8018 35.6332V33.2555H43.1108V32.6419H43.8018V31.7982L44.5695 31.6064Z" fill="white"/>
<path d="M50.0592 36.0164C50.0592 36.3999 50.0592 36.7834 50.1359 37.0902H49.4065L49.3298 36.5149H49.2914C49.061 36.8601 48.5236 37.2052 47.8326 37.2052C46.8729 37.2052 46.4122 36.5149 46.4122 35.9397C46.4122 34.8659 47.3335 34.2523 49.253 34.2906V34.2139C49.253 33.9455 49.1762 33.1785 48.1781 33.1785C47.7174 33.1785 47.2568 33.3319 46.9113 33.562L46.7193 33.0251C47.1416 32.7567 47.679 32.6033 48.2933 32.6033C49.752 32.6033 50.0592 33.6387 50.0592 34.4824V36.0164ZM49.253 34.8275C48.2549 34.7892 47.2184 34.9809 47.2184 35.7863C47.2184 36.2848 47.5639 36.5533 48.0245 36.5533C48.6772 36.5533 49.061 36.1314 49.2146 35.7863C49.253 35.7096 49.253 35.5945 49.253 35.5178V34.8275ZM49.5985 30.7241L48.4468 32.0664H47.871L48.6772 30.7241H49.5985Z" fill="white"/>
<path d="M51.4028 30.5708H52.2089V37.0902H51.4028V30.5708Z" fill="white"/>
<path d="M55.5488 37.2053C54.2436 37.2053 53.2454 36.2849 53.2454 34.9426C53.2454 33.4853 54.2819 32.5649 55.5872 32.5649C56.9692 32.5649 57.8905 33.5237 57.8905 34.8276C57.9289 36.4383 56.7004 37.2053 55.5488 37.2053ZM55.5872 36.5917C56.3933 36.5917 57.0843 35.9781 57.0843 34.8659C57.0843 34.0989 56.6237 33.1785 55.5872 33.1785C54.5507 33.1785 54.09 34.0222 54.09 34.9043C54.09 35.9397 54.781 36.5917 55.5872 36.5917Z" fill="white"/>
<path d="M62.9962 36.3997C62.9962 37.3584 62.7659 38.0487 62.3052 38.4706C61.8446 38.8924 61.1536 39.0075 60.6161 39.0075C60.0403 39.0075 59.4261 38.8541 59.0422 38.5856L59.2341 37.9337C59.5412 38.1254 60.0403 38.3172 60.6545 38.3172C61.5374 38.3172 62.1901 37.857 62.1901 36.7065V36.2079C61.9213 36.6298 61.4223 37.0133 60.6545 37.0133C59.4644 37.0133 58.6583 36.0545 58.6583 34.8657C58.6583 33.4084 59.6948 32.5264 60.7697 32.5264C61.6142 32.5264 62.0749 32.9482 62.3052 33.3701L62.3436 32.6414H63.073C63.0346 32.9482 63.0346 33.2934 63.0346 33.7919V36.3997H62.9962ZM62.1901 34.4822C62.1901 34.3288 62.1901 34.2138 62.1517 34.0987C61.9981 33.5618 61.5374 33.1783 60.8848 33.1783C60.0787 33.1783 59.4261 33.8303 59.4261 34.8657C59.4261 35.6327 59.8867 36.438 60.8464 36.438C61.4223 36.438 61.9213 36.0545 62.0749 35.556C62.1133 35.4409 62.1517 35.2492 62.1517 35.1341V34.4822H62.1901Z" fill="white"/>
<path d="M66.3361 37.2053C65.0308 37.2053 64.0327 36.2849 64.0327 34.9426C64.0327 33.4853 65.0692 32.5649 66.3744 32.5649C67.7564 32.5649 68.6778 33.5237 68.6778 34.8276C68.7162 36.4383 67.4877 37.2053 66.3361 37.2053ZM66.3744 36.5917C67.1806 36.5917 67.8716 35.9781 67.8716 34.8659C67.8716 34.0989 67.4109 33.1785 66.3744 33.1785C65.3379 33.1785 64.8773 34.0222 64.8773 34.9043C64.8773 35.9397 65.5683 36.5917 66.3744 36.5917Z" fill="white"/>
<path d="M69.6759 36.2467C69.9446 36.4001 70.4053 36.5919 70.8276 36.5919C71.4418 36.5919 71.7105 36.2851 71.7105 35.9399C71.7105 35.5564 71.4418 35.3647 70.8276 35.1729C69.983 34.9045 69.5991 34.4443 69.5991 33.9074C69.5991 33.1788 70.1749 32.6035 71.1731 32.6035C71.6337 32.6035 72.056 32.7186 72.3247 32.9103L72.1328 33.5239C71.9792 33.4089 71.5953 33.2555 71.1347 33.2555C70.6356 33.2555 70.3669 33.5239 70.3669 33.8691C70.3669 34.2525 70.674 34.4059 71.2882 34.5977C72.1328 34.8661 72.4783 35.2496 72.4783 35.9016C72.4783 36.6302 71.9025 37.2438 70.7508 37.2438C70.2517 37.2438 69.7527 37.0904 69.4455 36.8987L69.6759 36.2467Z" fill="white"/>
<path d="M76.0485 31.9131C75.7414 31.9131 75.5494 31.683 75.5494 31.4146C75.5494 31.1461 75.7414 30.916 76.0485 30.916C76.3556 30.916 76.5475 31.1461 76.5475 31.4146C76.5859 31.683 76.394 31.9131 76.0485 31.9131ZM75.6646 37.0903V32.6801H76.4707V37.0903H75.6646Z" fill="white"/>
<path d="M77.8911 33.9072C77.8911 33.447 77.8911 33.0635 77.8527 32.68H78.5821L78.6205 33.447H78.6589C78.8892 33.0251 79.4267 32.5649 80.2328 32.5649C80.8087 32.5649 81.8836 32.9101 81.8836 34.5591V37.0902H81.0774V34.6358C81.0774 33.8688 80.7703 33.2552 79.9641 33.2552C79.3883 33.2552 78.9276 33.6771 78.7741 34.0989C78.7357 34.214 78.6973 34.329 78.6973 34.4824V37.0902H77.8911V33.9072Z" fill="white"/>
<path d="M84.2253 31.6064V32.6802H85.4537V33.2938H84.2253V35.5948C84.2253 36.1317 84.3788 36.5152 84.8779 36.5152C85.1082 36.5152 85.2618 36.4769 85.377 36.4385L85.4153 37.0521C85.2618 37.1288 84.9931 37.1672 84.6476 37.1672C84.2637 37.1672 83.9566 37.0138 83.7646 36.7837C83.5343 36.5152 83.4575 36.0934 83.4575 35.6332V33.2555H82.7665V32.6419H83.4575V31.7982L84.2253 31.6064Z" fill="white"/>
<path d="M86.7974 35.0577C86.7974 36.0548 87.5267 36.5533 88.4097 36.5533C89.0623 36.5533 89.4462 36.4383 89.7533 36.3232L89.9069 36.8985C89.6381 37.0135 89.1007 37.2053 88.2945 37.2053C86.8741 37.2053 85.9912 36.2849 85.9912 34.981C85.9912 33.6771 86.8357 32.5649 88.2177 32.5649C89.7917 32.5649 90.1756 33.9455 90.1756 34.6742C90.1756 34.8276 90.1756 34.9426 90.1372 35.0577H86.7974ZM89.4078 34.4824C89.4078 34.0989 89.2542 33.1785 88.1794 33.1785C87.258 33.1785 86.8741 33.9455 86.7974 34.4824H89.4078Z" fill="white"/>
<path d="M91.2121 30.5708H92.0182V37.0902H91.2121V30.5708Z" fill="white"/>
<path d="M93.8225 31.9131C93.5154 31.9131 93.3235 31.683 93.3235 31.4146C93.3235 31.1461 93.5154 30.916 93.8225 30.916C94.1296 30.916 94.3216 31.1461 94.3216 31.4146C94.36 31.683 94.168 31.9131 93.8225 31.9131ZM93.4386 37.0903V32.6801H94.2448V37.0903H93.4386Z" fill="white"/>
<path d="M99.696 36.3997C99.696 37.3584 99.4657 38.0487 99.005 38.4706C98.5444 38.8924 97.8534 39.0075 97.3159 39.0075C96.7401 39.0075 96.1259 38.8541 95.742 38.5856L95.9339 37.9337C96.241 38.1254 96.7401 38.3172 97.3543 38.3172C98.2373 38.3172 98.8899 37.857 98.8899 36.7065V36.2079C98.6211 36.6298 98.1221 37.0133 97.3543 37.0133C96.2026 37.0133 95.3581 36.0545 95.3581 34.8657C95.3581 33.4084 96.3946 32.5264 97.4695 32.5264C98.314 32.5264 98.7747 32.9482 99.005 33.3701L99.0434 32.6414H99.7728C99.7344 32.9482 99.7344 33.2934 99.7344 33.7919V36.3997H99.696ZM98.8899 34.4822C98.8899 34.3288 98.8899 34.2138 98.8515 34.0987C98.6979 33.5618 98.2372 33.1783 97.5846 33.1783C96.7401 33.1783 96.1259 33.8303 96.1259 34.8657C96.1259 35.6327 96.5865 36.438 97.5463 36.438C98.1221 36.438 98.6211 36.0545 98.7747 35.556C98.8131 35.4409 98.8515 35.2492 98.8515 35.1341V34.4822H98.8899Z" fill="white"/>
<path d="M101.5 35.0577C101.5 36.0548 102.23 36.5533 103.113 36.5533C103.765 36.5533 104.149 36.4383 104.456 36.3232L104.61 36.8985C104.341 37.0135 103.804 37.2053 102.997 37.2053C101.577 37.2053 100.694 36.2849 100.694 34.981C100.694 33.6771 101.5 32.5649 102.921 32.5649C104.495 32.5649 104.879 33.9455 104.879 34.6742C104.879 34.8276 104.879 34.9426 104.84 35.0577H101.5ZM104.111 34.4824C104.111 34.0989 103.957 33.1785 102.882 33.1785C101.961 33.1785 101.577 33.9455 101.5 34.4824H104.111Z" fill="white"/>
<path d="M105.953 33.9072C105.953 33.447 105.953 33.0635 105.915 32.68H106.644L106.683 33.447H106.721C106.952 33.0251 107.489 32.5649 108.295 32.5649C108.871 32.5649 109.946 32.9101 109.946 34.5591V37.0902H109.14V34.6358C109.14 33.8688 108.833 33.2552 108.026 33.2552C107.451 33.2552 106.99 33.6771 106.836 34.0989C106.798 34.214 106.76 34.329 106.76 34.4824V37.0902H105.953V33.9072Z" fill="white"/>
<path d="M112.288 31.6064V32.6802H113.516V33.2938H112.288V35.5948C112.288 36.1317 112.441 36.5152 112.94 36.5152C113.171 36.5152 113.324 36.4769 113.439 36.4385L113.478 37.0521C113.324 37.1288 113.055 37.1672 112.71 37.1672C112.326 37.1672 112.019 37.0138 111.827 36.7837C111.597 36.5152 111.52 36.0934 111.52 35.6332V33.2555H110.829V32.6419H111.52V31.7982L112.288 31.6064Z" fill="white"/>
<path d="M114.86 35.0577C114.86 36.0548 115.589 36.5533 116.472 36.5533C117.125 36.5533 117.508 36.4383 117.816 36.3232L117.969 36.8985C117.7 37.0135 117.163 37.2053 116.357 37.2053C114.936 37.2053 114.053 36.2849 114.053 34.981C114.053 33.6771 114.86 32.5649 116.28 32.5649C117.854 32.5649 118.238 33.9455 118.238 34.6742C118.238 34.8276 118.238 34.9426 118.199 35.0577H114.86ZM117.47 34.4824C117.47 34.0989 117.317 33.1785 116.242 33.1785C115.32 33.1785 114.936 33.9455 114.86 34.4824H117.47Z" fill="white"/>
<path d="M119.198 36.2467C119.466 36.4001 119.927 36.5919 120.349 36.5919C120.964 36.5919 121.232 36.2851 121.232 35.9399C121.232 35.5564 120.964 35.3647 120.349 35.1729C119.505 34.9045 119.121 34.4443 119.121 33.9074C119.121 33.1788 119.697 32.6035 120.695 32.6035C121.155 32.6035 121.578 32.7186 121.846 32.9103L121.655 33.5239C121.501 33.4089 121.117 33.2555 120.656 33.2555C120.157 33.2555 119.889 33.5239 119.889 33.8691C119.889 34.2525 120.196 34.4059 120.81 34.5977C121.655 34.8661 122 35.2496 122 35.9016C122 36.6302 121.424 37.2438 120.273 37.2438C119.773 37.2438 119.274 37.0904 118.967 36.8987L119.198 36.2467Z" fill="white"/>
<path d="M29.1372 15.6911C28.6381 13.8503 28.4078 12.8915 28.1007 11.3959C27.7936 11.4342 25.0296 9.67016 25.3751 6.71724C23.9931 5.5284 23.3405 4.83811 21.9585 3.53422C21.8049 3.84101 20.4613 4.33956 19.1945 3.84101C17.9276 3.34247 16.8527 2.46043 16.584 1.15654C14.3575 1.04149 13.3977 0.96479 11.2863 1.00314C11.5551 1.69343 11.5167 2.11528 11.3247 2.72887C11.1328 3.38082 10.4418 4.03276 9.75078 4.33956C7.94651 5.10655 5.71995 3.99441 5.25928 3.64927C3.91567 5.2983 2.68722 6.75559 1.34361 8.67307C2.53367 9.24832 3.14789 11.2808 3.14789 12.393C3.14789 14.0804 1.88106 16.1513 0 16.3047C0.729389 19.2576 1.15167 20.3314 2.11139 23.476C6.48773 23.361 7.83134 26.9275 7.29389 29.2668C9.17495 30.0338 10.9408 30.9542 12.7067 31.6445V27.5411C7.48584 25.3935 4.10761 19.1425 4.95217 13.3134C5.45123 9.90026 7.37067 6.98569 10.1731 5.41335C12.7835 3.91771 15.8162 3.72597 18.8106 4.83811C18.9641 4.87646 19.1177 4.95315 19.2328 4.9915C24.2618 7.06239 27.4865 12.4697 26.9106 18.0687C26.5267 21.7887 24.6073 24.8566 21.3442 26.6974L20.7684 30.9159C21.8433 30.4557 22.8414 29.8804 23.7627 29.1518C23.3405 27.6562 25.8357 24.7032 27.2561 25.01C27.8704 23.2843 28.1775 22.4789 28.7917 20.8683C27.5632 20.7532 27.6784 15.8828 29.1372 15.6911Z" fill="white"/>
<path d="M21.1907 32.9102L12.5532 34.2524L12.63 36.7451L14.8949 36.9369C14.9717 38.049 15.893 38.9311 16.9679 38.9311C18.0428 38.9311 18.9257 38.049 19.0409 36.9369L21.3059 36.7451L21.1907 32.9102Z" fill="white"/>
<path d="M21.3826 26.7362C23.4172 25.3173 24.7992 23.1697 25.4135 20.8304C26.0277 18.4911 26.1045 15.5765 25.2599 13.3906C24.4537 11.2046 23.3021 9.36384 21.4978 8.05995C19.6935 6.75606 17.5821 6.06577 15.202 6.25751C13.0906 6.41091 10.6337 7.52305 9.17495 9.09539C7.71617 10.6677 6.83323 12.8537 6.71806 15.1163C6.5645 17.3789 7.17873 19.7182 8.3304 21.7124C9.44367 23.7066 11.1712 25.394 13.2058 26.3527L13.7048 26.5828L13.6665 27.0814C13.5897 28.7304 13.5513 30.3794 13.4361 32.0285C13.4361 32.0285 15.5859 31.9518 16.6608 31.9518C17.9276 31.9134 19.1945 31.9134 20.4613 31.9134C19.1945 32.1435 17.966 32.3353 16.6992 32.5654C15.4323 32.7571 14.1655 32.9489 12.9371 33.1406L12.3996 33.2173L12.3612 32.6037C12.2461 30.9547 12.1309 27.6566 12.1309 27.6566C12.1309 27.6566 12.0925 27.6566 12.0541 27.6183C7.40906 25.5857 4.22278 20.4469 4.37634 14.9629C4.45311 12.1634 5.528 9.32549 7.40906 7.25461C9.29012 5.22207 11.9773 3.99488 14.6646 3.91819C16.0082 3.87984 17.3518 4.10993 18.5802 4.57013C19.8087 5.03033 20.9987 5.68227 22.0736 6.48761C24.185 8.13665 25.759 10.5143 26.5267 13.0838C27.2945 15.6915 27.2177 18.5294 26.2964 21.0221C25.4135 23.5916 23.6092 25.7008 21.3826 26.7362Z" fill="#FA9401"/>
</svg>
